<svg preserveAspectRatio="none" width="100%" height="100%" overflow="visible" style="display: block;" viewBox="0 0 307.333 52.5333" fill="none" xmlns="http://www.w3.org/2000/svg">
<g id="Container">
<path id="Icon" d="M15.6 39.2C16.3556 39.2 16.9889 38.9444 17.5 38.4333C18.0111 37.9222 18.2667 37.2889 18.2667 36.5333C18.2667 35.7778 18.0111 35.1444 17.5 34.6333C16.9889 34.1222 16.3556 33.8667 15.6 33.8667C14.8444 33.8667 14.2111 34.1222 13.7 34.6333C13.1889 35.1444 12.9333 35.7778 12.9333 36.5333C12.9333 37.2889 13.1889 37.9222 13.7 38.4333C14.2111 38.9444 14.8444 39.2 15.6 39.2V39.2M15.6 28.9333C16.3556 28.9333 16.9889 28.6778 17.5 28.1667C18.0111 27.6556 18.2667 27.0222 18.2667 26.2667C18.2667 25.5111 18.0111 24.8778 17.5 24.3667C16.9889 23.8556 16.3556 23.6 15.6 23.6C14.8444 23.6 14.2111 23.8556 13.7 24.3667C13.1889 24.8778 12.9333 25.5111 12.9333 26.2667C12.9333 27.0222 13.1889 27.6556 13.7 28.1667C14.2111 28.6778 14.8444 28.9333 15.6 28.9333V28.9333M15.6 18.6667C16.3556 18.6667 16.9889 18.4111 17.5 17.9C18.0111 17.3889 18.2667 16.7556 18.2667 16C18.2667 15.2444 18.0111 14.6111 17.5 14.1C16.9889 13.5889 16.3556 13.3333 15.6 13.3333C14.8444 13.3333 14.2111 13.5889 13.7 14.1C13.1889 14.6111 12.9333 15.2444 12.9333 16C12.9333 16.7556 13.1889 17.3889 13.7 17.9C14.2111 18.4111 14.8444 18.6667 15.6 18.6667V18.6667M23.6 39.2H39.6V33.8667H23.6V39.2V39.2M23.6 28.9333H39.6V23.6H23.6V28.9333V28.9333M23.6 18.6667H39.6V13.3333H23.6V18.6667V18.6667M8.4 52.5333C6.04444 52.5333 4.05556 51.7222 2.43333 50.1C0.811111 48.4778 0 46.4889 0 44.1333V8.4C0 6.04444 0.811111 4.05556 2.43333 2.43333C4.05556 0.811111 6.04444 0 8.4 0H44.1333C46.4889 0 48.4778 0.811111 50.1 2.43333C51.7222 4.05556 52.5333 6.04444 52.5333 8.4V44.1333C52.5333 46.4889 51.7222 48.4778 50.1 50.1C48.4778 51.7222 46.4889 52.5333 44.1333 52.5333H8.4V52.5333" fill="var(--fill-0, #D1F100)"/>
</g>
</svg>
