<svg preserveAspectRatio="none" width="100%" height="100%" overflow="visible" style="display: block;" viewBox="0 0 100.192 95.3333" fill="none" xmlns="http://www.w3.org/2000/svg">
<g id="Container" opacity="0.1">
<path id="Icon" d="M10 84.1667L5.75 82.4167C3.16667 81.3333 1.4375 79.4583 0.5625 76.7917C-0.3125 74.125 -0.166667 71.5 1 68.9167L10 49.4167V84.1667V84.1667M30 95.1667C27.25 95.1667 24.8958 94.1875 22.9375 92.2292C20.9792 90.2708 20 87.9167 20 85.1667V55.1667L33.25 91.9167C33.5 92.5 33.75 93.0625 34 93.6042C34.25 94.1458 34.5833 94.6667 35 95.1667H30V95.1667M55.75 94.6667C53.0833 95.6667 50.5 95.5417 48 94.2917C45.5 93.0417 43.75 91.0833 42.75 88.4167L20.5 27.4167C19.5 24.75 19.5833 22.1458 20.75 19.6042C21.9167 17.0625 23.8333 15.3333 26.5 14.4167L64.25 0.666667C66.9167 -0.333333 69.5 -0.208333 72 1.04167C74.5 2.29167 76.25 4.25 77.25 6.91667L99.5 67.9167C100.5 70.5833 100.417 73.1875 99.25 75.7292C98.0833 78.2708 96.1667 80 93.5 80.9167L55.75 94.6667V94.6667M45 35.1667C46.4167 35.1667 47.6042 34.6875 48.5625 33.7292C49.5208 32.7708 50 31.5833 50 30.1667C50 28.75 49.5208 27.5625 48.5625 26.6042C47.6042 25.6458 46.4167 25.1667 45 25.1667C43.5833 25.1667 42.3958 25.6458 41.4375 26.6042C40.4792 27.5625 40 28.75 40 30.1667C40 31.5833 40.4792 32.7708 41.4375 33.7292C42.3958 34.6875 43.5833 35.1667 45 35.1667V35.1667" fill="var(--fill-0, #D1F100)"/>
</g>
</svg>
