<svg preserveAspectRatio="none" width="100%" height="100%" overflow="visible" style="display: block;" viewBox="0 0 307.333 60.2667" fill="none" xmlns="http://www.w3.org/2000/svg">
<g id="Container">
<path id="Icon" d="M34.3333 60.2667V53.4H41.2V60.2667H34.3333V60.2667M27.4667 53.4V37H34.3333V53.4H27.4667V53.4M52.8667 43.3333V30.1333H59.7333V43.3333H52.8667V43.3333M46 30.1333V23.2667H52.8667V30.1333H46V30.1333M6.86667 37V30.1333H13.7333V37H6.86667V37M0 30.1333V23.2667H6.86667V30.1333H0V30.1333M30.1333 6.86667V0H37V6.86667H30.1333V6.86667M6.06667 14.5333H14.5333V6.06667H6.06667V14.5333V14.5333M0 20.6V0H20.6V20.6H0V20.6M6.06667 54.2H14.5333V45.7333H6.06667V54.2V54.2M0 60.2667V39.6667H20.6V60.2667H0V60.2667M45.7333 14.5333H54.2V6.06667H45.7333V14.5333V14.5333M39.6667 20.6V0H60.2667V20.6H39.6667V20.6M47.0667 60.2667V50.2H40.6667V43.3333H52.8667V53.4H59.7333V60.2667H47.0667V60.2667M34.3333 37V30.1333H46V37H34.3333V37M20.6 37V30.1333H13.7333V23.2667H34.3333V30.1333H27.4667V37H20.6V37M23.2667 20.6V6.86667H30.1333V14.2667H37V20.6H23.2667V20.6M8.53333 12.0667V8.53333H12.0667V12.0667H8.53333V12.0667M8.53333 51.7333V48.2H12.0667V51.7333H8.53333V51.7333M48.2 12.0667V8.53333H51.7333V12.0667H48.2V12.0667" fill="var(--fill-0, #D1F100)"/>
</g>
</svg>
