<svg preserveAspectRatio="none" width="100%" height="100%" overflow="visible" style="display: block;" viewBox="0 0 28.4626 31.4414" fill="none" xmlns="http://www.w3.org/2000/svg">
<path id="Icon" d="M23.3042 31.4414C21.8714 31.4414 20.6538 30.9421 19.6516 29.9434C18.6495 28.9448 18.1484 27.7321 18.1484 26.3055C18.1484 26.1696 18.1788 25.8832 18.2397 25.4462L8.42287 19.7414C7.98048 20.1022 7.48329 20.3854 6.93131 20.5908C6.37934 20.7963 5.78793 20.899 5.1571 20.899C3.72457 20.899 2.50692 20.396 1.50415 19.3901C0.501385 18.3842 0 17.1627 0 15.7257C0 14.2886 0.501385 13.0655 1.50415 12.0563C2.50692 11.047 3.72457 10.5424 5.1571 10.5424C5.78536 10.5424 6.38319 10.6486 6.95058 10.8611C7.51798 11.0736 8.02994 11.3674 8.48646 11.7424L18.2185 6.07992C18.1826 5.93318 18.162 5.7821 18.1565 5.62666C18.1511 5.47123 18.1484 5.31471 18.1484 5.1571C18.1484 3.72457 18.6499 2.50692 19.6529 1.50415C20.6559 0.501385 21.8739 0 23.3067 0C24.7396 0 25.9571 0.501506 26.9593 1.50452C27.9615 2.50753 28.4626 3.72547 28.4626 5.15835C28.4626 6.59122 27.9612 7.80875 26.9584 8.81093C25.9557 9.81311 24.738 10.3142 23.3055 10.3142C22.6438 10.3142 22.0235 10.2009 21.4445 9.97425C20.8656 9.74762 20.3479 9.43267 19.8913 9.02941L10.2441 14.6071C10.2941 14.7969 10.3253 14.98 10.3378 15.1563C10.3503 15.3326 10.3566 15.5242 10.3566 15.7313C10.3566 15.9384 10.3468 16.1373 10.3272 16.328C10.3077 16.5188 10.2729 16.7087 10.2229 16.8979L19.8489 22.4756C20.3055 22.0582 20.8277 21.7291 21.4156 21.4883C22.0036 21.2476 22.6335 21.1272 23.3055 21.1272C24.738 21.1272 25.9557 21.6301 26.9584 22.6361C27.9612 23.642 28.4626 24.8635 28.4626 26.3005C28.4626 27.7375 27.9611 28.9536 26.9581 29.9487C25.955 30.9438 24.7371 31.4414 23.3042 31.4414V31.4414M23.2925 27.6783C23.6837 27.6783 24.0161 27.5445 24.2894 27.277C24.5628 27.0094 24.6995 26.6779 24.6995 26.2824C24.6995 25.8869 24.5639 25.556 24.2926 25.2897C24.0214 25.0234 23.6853 24.8903 23.2843 24.8903C22.8953 24.8903 22.5693 25.0269 22.3061 25.3003C22.043 25.5737 21.9115 25.9017 21.9115 26.2843C21.9115 26.6669 22.0438 26.9949 22.3085 27.2682C22.5732 27.5416 22.9012 27.6783 23.2925 27.6783V27.6783M5.15896 17.1359C5.55446 17.1359 5.89242 17.0007 6.17286 16.7303C6.45329 16.4599 6.59351 16.1249 6.59351 15.7252C6.59351 15.3254 6.45329 14.9889 6.17286 14.7155C5.89242 14.4422 5.55446 14.3055 5.15896 14.3055C4.76346 14.3055 4.43194 14.4407 4.1644 14.7111C3.89685 14.9815 3.76308 15.3165 3.76308 15.7162C3.76308 16.1159 3.89685 16.4525 4.1644 16.7258C4.43194 16.9992 4.76346 17.1359 5.15896 17.1359V17.1359M23.3055 6.55112C23.6881 6.55112 24.0125 6.41877 24.2788 6.15408C24.5451 5.88939 24.6783 5.5614 24.6783 5.17012C24.6783 4.77883 24.546 4.44651 24.2813 4.17314C24.0166 3.89977 23.6886 3.76308 23.2973 3.76308C22.906 3.76308 22.5737 3.89871 22.3003 4.16996C22.0269 4.44121 21.8903 4.77732 21.8903 5.1783C21.8903 5.56726 22.0305 5.89331 22.3109 6.15643C22.5914 6.41955 22.9229 6.55112 23.3055 6.55112V6.55112M23.3267 26.2843V26.2843V26.2843V26.2843V26.2843V26.2843V26.2843V26.2843V26.2843V26.2843M5.1783 15.7207V15.7207V15.7207V15.7207V15.7207V15.7207V15.7207V15.7207V15.7207V15.7207M23.3055 5.1571V5.1571V5.1571V5.1571V5.1571V5.1571V5.1571V5.1571V5.1571V5.1571" fill="var(--fill-0, #D1F100)"/>
</svg>
