<svg preserveAspectRatio="none" width="100%" height="100%" overflow="visible" style="display: block;" viewBox="0 0 34.8653 33.3229" fill="none" xmlns="http://www.w3.org/2000/svg">
<path id="Icon" d="M12.0359 33.3229L9.03753 28.2262L3.29838 26.9626L3.86577 21.0946L0 16.6615L3.86577 12.2283L3.29838 6.36034L9.03753 5.09675L12.0359 0L17.4327 2.30218L22.8294 0L25.8278 5.09675L31.5669 6.36034L30.9995 12.2283L34.8653 16.6615L30.9995 21.0946L31.5669 26.9626L25.8278 28.2262L22.8294 33.3229L17.4327 31.0207L12.0359 33.3229V33.3229M13.7136 28.2685L17.4327 26.6397L21.2267 28.2685L23.2631 24.7533L27.2609 23.8207L26.9283 19.7055L29.5973 16.6615L26.9283 13.5424L27.2609 9.42723L23.2631 8.56962L21.1517 5.05441L17.4327 6.68321L13.6386 5.05441L11.6022 8.56962L7.60441 9.42723L7.93702 13.5424L5.268 16.6615L7.93702 19.7055L7.60441 23.8957L11.6022 24.7533L13.7136 28.2685V28.2685M17.4327 16.6615V16.6615V16.6615V16.6615V16.6615V16.6615V16.6615V16.6615V16.6615V16.6615V16.6615V16.6615V16.6615V16.6615V16.6615V16.6615V16.6615V16.6615V16.6615V16.6615V16.6615V16.6615M15.8577 22.2196L24.5658 13.5115L22.2115 11.1245L15.8577 17.4783L12.6539 14.3071L10.2995 16.6615L15.8577 22.2196V22.2196" fill="var(--fill-0, #D1F100)"/>
</svg>
