<svg preserveAspectRatio="none" width="100%" height="100%" overflow="visible" style="display: block;" viewBox="0 0 34.3142 30.2511" fill="none" xmlns="http://www.w3.org/2000/svg">
<path id="Icon" d="M23.4343 15.6864L20.3478 12.5999C20.4739 11.9337 20.2742 11.3 19.7487 10.6989C19.2231 10.0979 18.5517 9.86038 17.7343 9.98646L14.8174 7.06957C15.2001 6.91197 15.5854 6.79376 15.9734 6.71496C16.3615 6.63616 16.756 6.59675 17.1571 6.59675C19.0321 6.59675 20.6258 7.253 21.9383 8.5655C23.2508 9.878 23.9071 11.4718 23.9071 13.3468C23.9071 13.7196 23.8677 14.1141 23.7889 14.5304C23.7101 14.9467 23.5919 15.3321 23.4343 15.6864V15.6864M28.7854 21.0049L26.1865 18.4386C27.0375 17.7419 27.8 16.987 28.4739 16.1739C29.1479 15.3609 29.7614 14.4185 30.3147 13.3468C29.0364 10.8359 27.2427 8.83317 24.9335 7.3386C22.6242 5.84404 20.0321 5.09675 17.1571 5.09675C16.4321 5.09675 15.7585 5.13969 15.1362 5.22556C14.5139 5.31143 13.9147 5.43316 13.3386 5.59077L10.4625 2.71466C11.4875 2.28966 12.5658 1.97091 13.6973 1.75841C14.8288 1.54591 15.9821 1.43966 17.1571 1.43966C21.0169 1.43966 24.4818 2.51873 27.552 4.67689C30.6221 6.83504 32.8761 9.725 34.3142 13.3468C33.7392 14.85 32.9688 16.2612 32.0031 17.5802C31.0373 18.8992 29.9647 20.0408 28.7854 21.0049V21.0049M28.6027 30.2511L22.6843 24.3865C21.8375 24.6756 20.9563 24.8924 20.0405 25.037C19.1248 25.1816 18.1636 25.2539 17.1571 25.2539C13.2832 25.2539 9.81116 24.1677 6.74105 21.9954C3.67093 19.8231 1.42392 16.9402 0 13.3468C0.510869 12.05 1.17337 10.8082 1.9875 9.62121C2.80163 8.43425 3.70707 7.36251 4.7038 6.40598L0.66359 2.33316L2.99675 0L30.9147 27.9391L28.6027 30.2511V30.2511M7.29133 8.92992C6.59459 9.60818 5.98508 10.2924 5.4628 10.9826C4.94053 11.6728 4.45982 12.4609 4.02069 13.3468C5.27069 15.8718 7.05384 17.878 9.37014 19.3655C11.6864 20.853 14.2821 21.5968 17.1571 21.5968C17.5299 21.5968 17.922 21.5761 18.3334 21.5348C18.7449 21.4935 19.2006 21.4353 19.7006 21.3603L18.3506 19.9353C18.1462 19.9962 17.9473 20.0383 17.7538 20.0617C17.5604 20.0851 17.3614 20.0968 17.1571 20.0968C15.2821 20.0968 13.6883 19.4405 12.3758 18.128C11.0633 16.8155 10.4071 15.2218 10.4071 13.3468C10.4071 13.1565 10.4153 12.9612 10.4316 12.7606C10.4479 12.5601 10.4794 12.3576 10.5261 12.1533L7.29133 8.92992V8.92992M19.7626 12.0147V12.0147V12.0147V12.0147V12.0147V12.0147V12.0147V12.0147V12.0147M13.4853 15.1451V15.1451V15.1451V15.1451V15.1451V15.1451V15.1451V15.1451V15.1451" fill="var(--fill-0, #D1F100)"/>
</svg>
