<svg preserveAspectRatio="none" width="100%" height="100%" overflow="visible" style="display: block;" viewBox="0 0 52.5682 52.5" fill="none" xmlns="http://www.w3.org/2000/svg">
<g id="Container">
<path id="Icon" d="M20.5 18L26.0625 8.8125L22.375 2.6875C21.875 1.85417 21.1562 1.4375 20.2188 1.4375C19.2812 1.4375 18.5625 1.85417 18.0625 2.6875L11.9375 12.875L20.5 18V18M44.6875 35L39.125 25.75L47.8125 20.75L51.8125 27.4375C52.2708 28.1458 52.5208 28.9375 52.5625 29.8125C52.6042 30.6875 52.4167 31.5 52 32.25C51.5833 33.0833 50.9688 33.75 50.1562 34.25C49.3438 34.75 48.4583 35 47.5 35H44.6875V35M37.5 52.5L27.5 42.5L37.5 32.5V37.5H49.375L45.75 44.75C45.2917 45.5833 44.6667 46.25 43.875 46.75C43.0833 47.25 42.2083 47.5 41.25 47.5H37.5V52.5V52.5M13.3125 47.5C12.4792 47.5 11.7188 47.2812 11.0312 46.8438C10.3438 46.4062 9.83333 45.8333 9.5 45.125C9.16667 44.4583 9.01042 43.7604 9.03125 43.0312C9.05208 42.3021 9.25 41.625 9.625 41L11.75 37.5H22.5V47.5H13.3125V47.5M7.125 40.375L3.0625 32.25C2.6875 31.5 2.51042 30.6979 2.53125 29.8438C2.55208 28.9896 2.79167 28.1875 3.25 27.4375L4.25 25.75L0 23.1875L13.6875 19.75L17.125 33.5L12.8125 30.875L7.125 40.375V40.375M40.875 19L27.1875 15.5625L31.5 13L23.6875 0H32.5C33.375 0 34.1979 0.21875 34.9688 0.65625C35.7396 1.09375 36.3542 1.6875 36.8125 2.4375L40.0625 7.875L44.3125 5.25L40.875 19V19" fill="var(--fill-0, #D1F100)"/>
</g>
</svg>
