<svg preserveAspectRatio="none" width="100%" height="100%" overflow="visible" style="display: block;" viewBox="0 0 26.729 26.7608" fill="none" xmlns="http://www.w3.org/2000/svg">
<g id="Container">
<path id="Icon" d="M4.8 10.6608L7.4 11.7608C7.71111 11.1385 8.03333 10.5385 8.36667 9.96075C8.7 9.38297 9.06667 8.8052 9.46667 8.22742L7.6 7.86075V7.86075V7.86075L4.8 10.6608V10.6608M9.53333 13.4274L13.3333 17.1941C14.2667 16.8385 15.2667 16.2941 16.3333 15.5608C17.4 14.8274 18.4 13.9941 19.3333 13.0608C20.8889 11.5052 22.1056 9.77742 22.9833 7.87742C23.8611 5.97742 24.2444 4.22742 24.1333 2.62742C22.5333 2.51631 20.7778 2.89964 18.8667 3.77742C16.9556 4.6552 15.2222 5.87186 13.6667 7.42742C12.7333 8.36075 11.9 9.36075 11.1667 10.4274C10.4333 11.4941 9.88889 12.4941 9.53333 13.4274V13.4274M15.4667 11.2608C14.9556 10.7496 14.7 10.1219 14.7 9.37742C14.7 8.63298 14.9556 8.0052 15.4667 7.49409C15.9778 6.98297 16.6111 6.72742 17.3667 6.72742C18.1222 6.72742 18.7556 6.98297 19.2667 7.49409C19.7778 8.0052 20.0333 8.63298 20.0333 9.37742C20.0333 10.1219 19.7778 10.7496 19.2667 11.2608C18.7556 11.7719 18.1222 12.0274 17.3667 12.0274C16.6111 12.0274 15.9778 11.7719 15.4667 11.2608V11.2608M16.1 21.9608L18.9 19.1608V19.1608V19.1608L18.5333 17.2941C17.9556 17.6941 17.3778 18.0552 16.8 18.3774C16.2222 18.6996 15.6222 19.0163 15 19.3274L16.1 21.9608V21.9608M26.5333 0.194086C26.9556 2.88297 26.6944 5.49964 25.75 8.04409C24.8056 10.5885 23.1778 13.0163 20.8667 15.3274V15.3274V15.3274L21.5333 18.6274C21.6222 19.0719 21.6 19.5052 21.4667 19.9274C21.3333 20.3496 21.1111 20.7163 20.8 21.0274L15.2 26.6274L12.4 20.0608L6.7 14.3608L0.133333 11.5608L5.7 5.96075C6.01111 5.64964 6.38333 5.42742 6.81667 5.29409C7.25 5.16075 7.68889 5.13853 8.13333 5.22742L11.4333 5.89409V5.89409V5.89409C13.7444 3.58297 16.1667 1.94964 18.7 0.994086C21.2333 0.0385305 23.8444 -0.228136 26.5333 0.194086V0.194086M2.5 18.5941C3.27778 17.8163 4.22778 17.4219 5.35 17.4108C6.47222 17.3996 7.42222 17.783 8.2 18.5608C8.97778 19.3385 9.36111 20.2885 9.35 21.4108C9.33889 22.533 8.94444 23.483 8.16667 24.2608C7.61111 24.8163 6.68333 25.2941 5.38333 25.6941C4.08333 26.0941 2.28889 26.4496 0 26.7608C0.311111 24.4719 0.666667 22.6774 1.06667 21.3774C1.46667 20.0774 1.94444 19.1496 2.5 18.5941V18.5941M4.4 20.4608C4.17778 20.683 3.95556 21.0885 3.73333 21.6774C3.51111 22.2663 3.35556 22.8608 3.26667 23.4608C3.86667 23.3719 4.46111 23.2219 5.05 23.0108C5.63889 22.7996 6.04444 22.583 6.26667 22.3608C6.53333 22.0941 6.67778 21.7719 6.7 21.3941C6.72222 21.0163 6.6 20.6941 6.33333 20.4274C6.06667 20.1608 5.74444 20.033 5.36667 20.0441C4.98889 20.0552 4.66667 20.1941 4.4 20.4608V20.4608" fill="var(--fill-0, #D1F100)"/>
</g>
</svg>
